<svg width="192" height="80" viewBox="0 0 192 80" fill="none" xmlns="http://www.w3.org/2000/svg">
<g clip-path="url(#clip0_910_514)">
<path d="M68.416 47.6095H64.7949V35.1713H60.3652V32.2885H72.8808V35.1713H68.416V47.6095Z" fill="white"/>
<path d="M75.9921 48.0015C75.0563 48.0015 73.3157 47.8257 72.1742 46.6395C71.2464 45.6717 70.7764 44.257 70.7764 42.4349C70.7764 40.0903 71.5347 38.3743 73.0299 37.3372C73.9169 36.7463 74.9687 36.4337 76.074 36.4337C77.2342 36.4337 79.3436 36.7754 80.4651 39.0645C81.05 40.3536 81.1611 41.7785 81.0951 43.1742H74.113C74.1401 44.251 74.3517 45.5181 76.0322 45.5532C76.9487 45.576 77.4666 45.1187 77.6877 44.1094H80.8518L80.8335 44.3294C80.7983 44.7545 80.715 45.7494 79.7879 46.7218C79.018 47.5364 77.6332 48.0029 75.9911 48.0029L75.9921 48.0015ZM77.5798 40.8507C77.5404 39.9289 77.2124 38.9256 75.9717 38.9256C74.6312 38.9256 74.3064 40.1402 74.2315 40.8507H77.5801H77.5798Z" fill="white"/>
<path d="M86.2226 47.8574C83.8436 47.94 82.5418 46.455 82.5137 44.5394C82.5137 43.6626 82.8157 42.0514 84.8389 41.1162C86.0226 40.7165 86.4325 40.618 88.8467 40.521L88.8792 42.7049C85.416 42.6291 85.5236 44.5197 86.3965 45.2383C87.1935 45.8943 88.9994 45.4721 88.8736 42.6993L88.8033 40.5196C88.7987 39.9824 88.7716 39.711 88.67 39.4044C88.4267 38.7119 87.6537 38.6767 87.5011 38.6767C87.0922 38.6767 86.7231 38.8595 86.5132 39.1661C86.322 39.4621 86.3219 39.749 86.3219 39.98V40.1828H82.9167L82.9245 39.9719C82.9438 39.4466 82.9895 38.2165 84.1852 37.3594C85.0025 36.773 86.1043 36.4756 87.46 36.4756C88.4499 36.4756 90.2686 36.6587 91.3271 37.8871C92.0985 38.817 92.0985 40.1424 92.0985 40.578L92.1196 44.7686C92.1196 45.7529 92.199 46.6044 92.3625 47.3677L92.4152 47.6138L89.2649 47.6262C89.1951 47.5207 89.1315 46.5687 89.1315 46.5687L89.1081 46.5689C89.0661 46.7853 87.9076 47.8047 86.6124 47.8592" fill="white"/>
<path d="M107.738 47.6078V41.2762C107.738 39.9866 107.474 39.1274 106.188 39.1274C104.636 39.1274 104.513 40.4521 104.513 42.1839V47.605H101.033V41.2136C101.033 40.2039 100.916 39.1267 99.5237 39.1267C97.8081 39.1267 97.8081 40.578 97.8081 41.2755V47.6071H94.3276V38.9446C94.3276 38.3652 94.2953 37.7493 94.2253 37.0036L94.2046 36.7818H97.5655L97.6436 37.7943C98.1217 37.261 99.0238 36.5547 100.699 36.5547C101.798 36.5547 103.221 36.8651 103.995 38.2812C104.72 37.133 105.81 36.5758 107.321 36.5758C109.468 36.5758 110.382 37.8178 110.676 38.3519C111.223 39.2431 111.22 40.4612 111.217 41.3479V47.6057H107.737L107.738 47.6078Z" fill="white"/>
<path d="M118.795 45.5107L123.4 32.3096H125.193L119.639 47.6095H117.846L112.256 32.3096H114.154L118.795 45.5107Z" fill="white"/>
<path d="M126.476 47.6077V36.8464H128.12V47.6077H126.476ZM126.373 34.259V32.306H128.223V34.2593H126.373V34.259Z" fill="white"/>
<path d="M135.019 47.9207C131.744 47.9207 130.277 45.0625 130.277 42.2289C130.277 39.4867 131.786 36.5371 135.1 36.5371C138.321 36.5659 140.029 38.7154 140.029 42.7176H132.031C132.095 43.9642 132.585 46.3738 135.41 46.3738C136.758 46.3738 137.906 45.4214 138.204 44.0581L138.239 43.8981H139.964C139.132 47.5192 136.876 47.8672 135.018 47.9129L135.019 47.9207ZM138.263 41.1812C138.049 39.2069 136.914 38.0801 135.122 38.0801C133.186 38.0801 132.292 39.7029 132.09 41.1812H138.263Z" fill="white"/>
<path d="M148.326 36.8483H150.049L153.002 45.1381L155.85 36.8483H157.678L153.67 47.6096H152.193L149.135 39.0174L146.006 47.6096H144.494L140.521 36.8483H142.314L145.303 45.2295L148.326 36.8483Z" fill="white"/>
<path d="M162.828 47.9207C159.553 47.9207 158.085 45.0625 158.085 42.2289C158.085 39.4867 159.595 36.5371 162.909 36.5371C166.304 36.5411 167.873 39.0262 167.838 42.7176H159.84C159.904 43.9642 160.393 46.3738 163.219 46.3738C164.576 46.3409 165.662 45.6077 166.047 43.8981H167.773C166.928 47.4454 164.66 47.8813 162.826 47.9129L162.828 47.9207ZM166.072 41.1812C165.858 39.2069 164.722 38.0801 162.931 38.0801C160.995 38.0801 160.1 39.7029 159.899 41.1812H166.072Z" fill="white"/>
<path d="M170.175 47.6078V39.3813C170.19 38.5597 170.116 37.8147 170.073 37.062L170.06 36.8472H171.749L171.79 37.8499C172.29 37.0764 173.106 36.573 173.98 36.5378C174.103 36.5315 174.226 36.5291 174.351 36.5291C174.647 36.5291 174.944 36.5438 175.232 36.5582L175.425 36.5677L175.429 36.7611V38.1782C172.55 37.6864 171.907 39.5658 171.872 40.9063L171.801 47.6071" fill="white"/>
<path d="M49.2382 22H20.7196C19.7255 22.0128 18.7768 22.4127 18.0801 23.1127C17.3835 23.8127 16.9953 24.7559 17 25.7371V54.2628C16.9953 55.2475 17.3864 56.1939 18.0876 56.8945C18.7888 57.595 19.7429 57.9926 20.7407 57.9999H49.2593C50.2571 57.9926 51.2112 57.595 51.9124 56.8945C52.6136 56.1939 53.0047 55.2475 52.9999 54.2628V25.7371C53.0023 25.2478 52.9068 24.7628 52.7189 24.3099C52.531 23.8571 52.2544 23.4452 51.9049 23.0981C51.5555 22.7509 51.14 22.4752 50.6824 22.2868C50.2248 22.0984 49.7341 22.0009 49.2382 22V22ZM34.9859 54.8851C31.0148 54.8548 27.2184 53.2701 24.4306 50.479C21.6428 47.6879 20.0918 43.9189 20.1184 40C20.0918 36.081 21.6428 32.312 24.4306 29.5209C27.2184 26.7298 31.0148 25.1451 34.9859 25.1148C38.9589 25.1423 42.758 26.7259 45.5481 29.5172C48.3381 32.3086 49.8906 36.0792 49.864 40C49.8906 43.9207 48.3381 47.6913 45.5481 50.4827C42.758 53.274 38.9589 54.8576 34.9859 54.8851V54.8851Z" fill="white"/>
<path d="M48.7884 39.9999L38.4701 35.2292L39.2991 38.2861H30.6788L31.5078 35.2292L21.1895 40.0035L31.5148 44.7741L30.6858 41.7173H39.3061L38.4771 44.7741L48.7884 40.0035" fill="white"/>
</g>
<defs>
<clipPath id="clip0_910_514">
<rect width="158.449" height="35.9999" fill="white" transform="translate(17 22)"/>
</clipPath>
</defs>
</svg>
